<?xml version="1.0" encoding="UTF-8"?>
<!DOCTYPE svg PUBLIC "-//W3C//DTD SVG 1.1//EN" "http://www.w3.org/Graphics/SVG/1.1/DTD/svg11.dtd">
<!-- Creator: CorelDRAW X7 -->
<svg xmlns="http://www.w3.org/2000/svg" xml:space="preserve" width="50.626mm" height="58.0139mm" version="1.1" style="shape-rendering:geometricPrecision; text-rendering:geometricPrecision; image-rendering:optimizeQuality; fill-rule:evenodd; clip-rule:evenodd"
viewBox="0 0 5406 6195"
 xmlns:xlink="http://www.w3.org/1999/xlink">
 <defs>
  <style type="text/css">
   <![CDATA[
    .fil2 {fill:none}
    .fil5 {fill:#00695C}
    .fil1 {fill:#2D3E45}
    .fil0 {fill:#3A4E57}
    .fil9 {fill:#3A4E57}
    .fil7 {fill:#4CA84F}
    .fil8 {fill:#5B7680}
    .fil3 {fill:#607D8B}
    .fil4 {fill:#708E99}
    .fil6 {fill:#8AC24A}
   ]]>
  </style>
    <clipPath id="id0">
     <path d="M39 3271c-142,-536 99,-799 728,-785l3521 -5c696,-33 1184,142 955,814l-625 1451 -3948 0 -631 -1475z"/>
    </clipPath>
    <clipPath id="id1">
     <path d="M670 4746l3946 0 85 342c38,482 -193,691 -627,694l-2687 0c-550,29 -826,-169 -817,-603l100 -433z"/>
    </clipPath>
 </defs>
 <g id="Layer_x0020_1">
  <metadata id="CorelCorpID_0Corel-Layer"/>
  <g id="_831838655408">
   <path class="fil0" d="M39 3271c-142,-536 99,-799 728,-785l3521 -5c696,-33 1184,142 955,814l-625 1451 -3948 0 -631 -1475z"/>
   <g style="clip-path:url(#id0)">
    <g>
     <path id="1" class="fil1" d="M3824 4776c199,-704 1241,-1891 260,-2253 259,-2 537,-28 737,-1 469,65 664,322 297,1125 -185,404 -422,835 -503,1123l-791 6z"/>
    </g>
   </g>
   <path class="fil2" d="M39 3271c-142,-536 99,-799 728,-785l3521 -5c696,-33 1184,142 955,814l-625 1451 -3948 0 -631 -1475z"/>
   <path class="fil3" d="M670 4746l3946 0 85 342c38,482 -193,691 -627,694l-2687 0c-550,29 -826,-169 -817,-603l100 -433z"/>
   <g style="clip-path:url(#id1)">
    <g>
     <path id="1" class="fil0" d="M4614 4746c42,108 113,375 77,602 -25,159 -124,296 -231,348 -226,108 -608,94 -1017,81 553,-17 628,-364 409,-1026l762 -5z"/>
    </g>
   </g>
   <path class="fil2" d="M670 4746l3946 0 85 342c38,482 -193,691 -627,694l-2687 0c-550,29 -826,-169 -817,-603l100 -433z"/>
   <path class="fil4" d="M4866 2631l-1984 -148 1197 -1202c630,-758 1841,344 1089,1086l-302 264z"/>
   <rect class="fil5" transform="matrix(0.177205 0.161034 -0.109235 0.120205 1319.06 773.082)" width="8589" height="1413" rx="706" ry="706"/>
   <path class="fil6" d="M2192 1876l182 -205c-67,-1180 -697,-1668 -1722,-1669 -261,-18 -388,86 -330,360 168,1122 774,1650 1870,1514z"/>
   <path class="fil7" d="M2192 1876l182 -205c-5,-78 -12,-153 -21,-225 -1048,324 -1853,-179 -2026,-1312l0 0 -18 140c2,27 6,56 13,88 168,1122 774,1650 1870,1514z"/>
  </g>
  <path class="fil8" d="M4866 2631l-393 -29c225,-141 549,-392 631,-520 128,-201 53,-795 51,-807 278,275 383,727 13,1092l-302 264z"/>
  <ellipse class="fil9" cx="2775" cy="6125" rx="2256" ry="71"/>
 </g>
</svg>
