<?xml version="1.0" encoding="UTF-8"?>
<!DOCTYPE svg PUBLIC "-//W3C//DTD SVG 1.1//EN" "http://www.w3.org/Graphics/SVG/1.1/DTD/svg11.dtd">
<!-- Creator: CorelDRAW X8 -->
<svg xmlns="http://www.w3.org/2000/svg" xml:space="preserve" width="18.7585cm" height="20.4326cm" version="1.1" style="shape-rendering:geometricPrecision; text-rendering:geometricPrecision; image-rendering:optimizeQuality; fill-rule:evenodd; clip-rule:evenodd"
viewBox="0 0 19451 21187"
 xmlns:xlink="http://www.w3.org/1999/xlink">
 <defs>
  <style type="text/css">
   <![CDATA[
    .str0 {stroke:black;stroke-width:20.738}
    .fil10 {fill:none}
    .fil12 {fill:#8B8B8C}
    .fil6 {fill:#474443}
    .fil11 {fill:#F4B3B3}
    .fil8 {fill:#93AAD7}
    .fil9 {fill:#93AAD7}
    .fil4 {fill:#758FC8}
    .fil5 {fill:#6983BA}
    .fil2 {fill:whitesmoke}
    .fil1 {fill:#FCCF9D}
    .fil3 {fill:#FCF7FF}
    .fil13 {fill:#8B8B8C;fill-opacity:0.450980}
    .fil0 {fill:#D9B285;fill-opacity:0.450980}
    .fil7 {fill:#FEFEFE;fill-opacity:0.831373}
   ]]>
  </style>
 </defs>
 <g id="Layer_x0020_1">
  <metadata id="CorelCorpID_0Corel-Layer"/>
  <g id="_202148656">
   <g>
    <path class="fil0" d="M8605 17753c2598,0 4886,-853 6764,-2182 1830,-1295 3284,-3065 3284,-3131 0,-135 -4077,-5295 -9828,-5295 -5752,0 -9019,4964 -8755,5553 265,589 3406,5055 8535,5055z"/>
    <path class="fil1" d="M8550 17416c2598,0 4886,-853 6764,-2182 1830,-1295 3283,-3065 3283,-3132 0,-135 -4077,-5294 -9828,-5294 -5751,0 -9019,4964 -8754,5553 264,589 3406,5055 8535,5055z"/>
    <path class="fil2" d="M8469 16780c2417,0 4546,-749 6293,-1915 1702,-1137 3054,-2691 3054,-2750 0,-118 -3793,-4649 -9143,-4649 -5351,0 -8391,4359 -8145,4876 246,517 3169,4438 7941,4438z"/>
    <path class="fil3" d="M8665 16538c2417,0 4545,-712 6293,-1822 1702,-1080 3054,-2558 3054,-2614 0,-113 -3793,-4420 -9143,-4420 -5351,0 -8391,4144 -8145,4636 246,492 3169,4220 7941,4220z"/>
    <path class="fil4" d="M11964 8016c1241,905 2048,2370 2048,4023 0,1826 -984,3422 -2450,4287 -1507,422 -2969,521 -4390,326 -1823,-738 -3109,-2525 -3109,-4613 0,-1872 1034,-3502 2562,-4351 1838,-415 3615,-279 5339,328z"/>
    <path class="fil5" d="M11964 8016c112,82 220,167 324,257 -2057,-656 -4147,-818 -6289,-173 198,-153 407,-291 626,-412 1838,-415 3615,-279 5339,328z"/>
    <circle class="fil6" cx="9083" cy="12158" r="1838"/>
    <path class="fil7" d="M8169 10283c393,0 713,319 713,713 0,394 -320,714 -713,714 -394,0 -714,-320 -714,-714 0,-394 320,-713 714,-713z"/>
    <path class="fil8" d="M5736 9250c332,-488 917,-203 613,292 -636,613 -1038,1388 -1052,2433 41,605 -698,545 -613,0 49,-1066 442,-1952 1052,-2725z"/>
    <ellipse class="fil9" cx="6877" cy="8779" rx="329" ry="311"/>
    <line class="fil10 str0" x1="19296" y1="18500" x2="19442" y2= "18280" />
    <path class="fil11" d="M1259 10948c-555,677 -809,1230 -731,1394 62,129 291,472 674,912 381,-75 675,-566 675,-1160 0,-565 -265,-1036 -618,-1146z"/>
   </g>
   <polygon class="fil12" points="8222,0 10256,0 10256,371 8591,371 8591,764 10256,764 10256,1130 8591,1130 8591,1523 10256,1523 10256,1916 8222,1916 "/>
   <polygon class="fil12" points="7592,2794 7592,4056 7838,4056 7838,3023 8099,3023 8099,4056 8340,4056 8340,3023 8601,3023 8601,4056 8861,4056 8861,2794 "/>
   <polygon class="fil12" points="9608,2806 10860,2806 10860,3049 9835,3049 9835,3306 10860,3306 10860,3545 9835,3545 9835,3803 10860,3803 10860,4060 9608,4060 "/>
   <polygon class="fil12" points="7969,5208 7343,5208 7343,5330 7855,5330 7855,5458 7343,5458 7343,5578 7855,5578 7855,5707 7343,5707 7343,5835 7969,5835 "/>
   <polygon class="fil12" points="9491,5837 9493,5205 9370,5204 9369,5722 9239,5722 9240,5204 9119,5204 9118,5722 8987,5721 8989,5203 8858,5203 8857,5836 "/>
   <polygon class="fil12" points="11016,5211 11017,5844 10894,5844 10893,5326 10763,5327 10764,5844 10643,5845 10642,5327 10512,5327 10513,5845 10383,5845 10382,5212 "/>
   <path class="fil13" d="M9721 20601c3919,0 7096,131 7096,293 0,162 -3177,293 -7096,293 -3919,0 -7096,-131 -7096,-293 0,-162 3177,-293 7096,-293z"/>
  </g>
 </g>
</svg>
