<?xml version="1.0" encoding="UTF-8"?>
<!DOCTYPE svg PUBLIC "-//W3C//DTD SVG 1.1//EN" "http://www.w3.org/Graphics/SVG/1.1/DTD/svg11.dtd">
<!-- Creator: CorelDRAW X8 -->
<svg xmlns="http://www.w3.org/2000/svg" xml:space="preserve" width="7.94211cm" height="10.7029cm" version="1.1" style="shape-rendering:geometricPrecision; text-rendering:geometricPrecision; image-rendering:optimizeQuality; fill-rule:evenodd; clip-rule:evenodd"
viewBox="0 0 2647 3566"
 xmlns:xlink="http://www.w3.org/1999/xlink">
 <defs>
  <style type="text/css">
   <![CDATA[
    .str5 {stroke:#7789A4;stroke-width:33.3225}
    .str1 {stroke:#566892;stroke-width:24.9919}
    .str6 {stroke:#566892;stroke-width:49.9838}
    .str4 {stroke:#7789A4;stroke-width:83.3063}
    .str2 {stroke:#FEFEFE;stroke-width:6.6645}
    .str3 {stroke:#757475;stroke-width:6.6645}
    .str0 {stroke:#332C2B;stroke-width:6.6645}
    .str7 {stroke:#566892;stroke-width:6.6645}
    .fil6 {fill:none}
    .fil7 {fill:#FEFEFE}
    .fil5 {fill:#EEEEEF}
    .fil9 {fill:#757475}
    .fil3 {fill:#5F5D5D}
    .fil13 {fill:#7789A4}
    .fil12 {fill:#566892}
    .fil8 {fill:#566892}
    .fil2 {fill:#2D80B9}
    .fil4 {fill:#00A2E9}
    .fil10 {fill:#E6E6E6}
    .fil1 {fill:#F0BA7D}
    .fil11 {fill:whitesmoke}
    .fil0 {fill:#FED298}
   ]]>
  </style>
    <clipPath id="id0">
     <path d="M875 1357l900 0 -16 705 -900 0 16 -705z"/>
    </clipPath>
    <clipPath id="id1">
     <path d="M782 0l1091 0 15 0 -1091 0 -15 0z"/>
    </clipPath>
   <mask id="id2">
  <linearGradient id="id3" gradientUnits="userSpaceOnUse" x1="1356.14" y1="3169.37" x2="1327.46" y2="3763.71">
   <stop offset="0" style="stop-opacity:1; stop-color:white"/>
   <stop offset="0.2" style="stop-opacity:74.2863; stop-color:white"/>
   <stop offset="1" style="stop-opacity:0; stop-color:white"/>
  </linearGradient>
    <rect style="fill:url(#id3)" x="390" y="3466" width="1866" height="100"/>
   </mask>
 </defs>
 <g id="Layer_x0020_1">
  <metadata id="CorelCorpID_0Corel-Layer"/>
  <path class="fil0 str0" d="M1708 304c-30,24 54,112 -111,98 -25,-2 -99,-44 -100,-74 -2,-80 -1,-39 45,-91 2,-3 1,-4 2,-8 58,-13 127,28 164,75z"/>
  <rect class="fil1" x="1062" y="1196" width="535" height="515"/>
  <polygon class="fil2" points="1697,1563 950,1563 1273,3044 1376,3044 "/>
  <polygon class="fil3" points="1249,1766 1292,1722 1354,1722 1409,1763 1356,1781 1428,2801 1324,3267 1213,2786 1291,1781 "/>
  <g id="_202139512">
   <g style="clip-path:url(#id0)">
    <image x="859" y="1357" width="916" height="705" xlink:href="Poli Umumx_Images\Poli Umumx_ImgID1.png"/>
   </g>
  </g>
  <g id="_202139368">
   <polygon class="fil4" points="1593,1438 1354,1722 1561,1949 1697,1563 "/>
   <polygon class="fil4" points="1053,1438 1292,1722 1085,1949 950,1563 "/>
  </g>
  <g id="_202139176">
   <path class="fil5" d="M2053 3252c-224,91 -466,138 -726,140l0 -124 167 -801 207 -927 617 208c86,15 136,71 140,176l189 950c-146,127 -304,226 -467,313l-102 -336 -25 401z"/>
   <path class="fil5" d="M593 3252c225,91 467,138 727,140l0 -124 -168 -801 -207 -927 -616 208c-87,15 -136,71 -141,176l-188 950c146,127 303,226 467,313l101 -336 25 401z"/>
  </g>
  <path class="fil6 str1" d="M2054 2258c58,-509 -71,-751 -344,-788 -38,-6 -76,-11 -113,-16m-535 -22c-309,26 -469,145 -441,379"/>
  <g id="_202139704">
   <circle class="fil7" cx="2026" cy="2414" r="150"/>
   <path class="fil8" d="M2024 2289c2,0 4,0 6,0l-7 46c-43,1 -77,36 -77,78 0,43 35,78 78,78 43,0 78,-35 78,-78 0,-30 -17,-55 -41,-68l7 -49c49,18 84,65 84,120 0,70 -57,128 -128,128 -70,0 -127,-58 -127,-128 0,-70 57,-127 127,-127z"/>
   <polygon class="fil7 str2" points="2017,2265 2036,2256 2076,2261 2084,2275 "/>
  </g>
  <g id="_202140928">
   <g style="clip-path:url(#id1)">
   </g>
  </g>
  <g id="_202140640">
   <path class="fil0" d="M1325 121c226,0 414,248 449,572l0 0c57,-75 139,-52 77,202 -21,62 -48,95 -85,72l0 0c-50,296 -228,514 -441,514 -213,0 -392,-219 -441,-514 -34,17 -60,-17 -80,-76 -61,-248 16,-275 73,-207 37,-319 224,-563 448,-563z"/>
   <path class="fil3" d="M934 544l11 4c149,-18 352,43 568,-184 125,-120 172,-72 157,111l0 83 53 113 -4 70 38 -2 54 -93c35,-303 -10,-474 -157,-474 -107,-295 -658,-182 -825,123 -40,133 -3,238 -4,357 23,13 41,42 50,93l29 -3c24,-78 31,-141 30,-198z"/>
  </g>
  <path class="fil9 str3" style="mask:url(#id2)" d="M1323 3470c514,0 930,21 930,46 0,26 -416,47 -930,47 -513,0 -929,-21 -929,-47 0,-25 416,-46 929,-46z"/>
  <g id="_202141600">
   <polygon class="fil10" points="1268,3163 930,1575 675,1943 945,1943 782,2050 "/>
   <polygon class="fil11" points="1280,3145 942,1557 687,1925 958,1925 795,2032 "/>
  </g>
  <g id="_202141984">
   <polygon class="fil10" points="1367,3158 1705,1570 1960,1938 1690,1938 1853,2045 "/>
   <polygon class="fil11" points="1354,3139 1692,1551 1947,1920 1677,1920 1840,2027 "/>
  </g>
  <path class="fil6 str1" d="M379 2269c-130,-414 600,-560 647,-129"/>
  <line class="fil6 str4" x1="621" y1="1811" x2="627" y2= "1870" />
  <path class="fil6 str5" d="M379 2269c45,305 72,380 164,359"/>
  <path class="fil6 str5" d="M1026 2140c34,276 115,382 -45,408"/>
  <line class="fil6 str6" x1="984" y1="2548" x2="923" y2= "2549" />
  <circle class="fil12 str7" cx="920" cy="2556" r="37"/>
  <circle class="fil13 str7" cx="902" cy="2542" r="8"/>
  <line class="fil6 str6" x1="537" y1="2627" x2="581" y2= "2618" />
  <circle class="fil12 str7" transform="matrix(-0.539074 0.180567 0.180567 0.539074 599.751 2613.67)" r="65"/>
  <circle class="fil13 str7" transform="matrix(-0.861606 0.288601 0.288601 0.861606 616.677 2596.27)" r="11"/>
 </g>
</svg>
